<svg xmlns="http://www.w3.org/2000/svg" width="15.877" height="16.153" viewBox="0 0 15.877 16.153">
  <g id="soc2" transform="translate(0.25 0.249)">
    <path id="Union_3" data-name="Union 3" d="M12.153,15.65s-.042-4.275,0-6.519a1.587,1.587,0,0,0-1.781-1.37A1.556,1.556,0,0,0,8.636,9.248c-.021.99-.023,6.4-.023,6.4H5.669L5.595,5.31H8.612V6.739s1.62-1.873,3.541-1.6a3.331,3.331,0,0,1,3.2,3.3c.038,1.851,0,7.215,0,7.215ZM.667,15.628V5.321H3.66V15.628ZM0,2.162A2.161,2.161,0,1,1,2.162,4.323,2.161,2.161,0,0,1,0,2.162Z" fill="none" stroke="#000" stroke-width="0.5"/>
  </g>
</svg>
