<svg xmlns="http://www.w3.org/2000/svg" width="19.331" height="16.023" viewBox="0 0 19.331 16.023">
  <g id="soc5" transform="translate(0.135 0.345)">
    <path id="Path_1106" data-name="Path 1106" d="M18.988,2.649a7.789,7.789,0,0,1-2.237.613,3.907,3.907,0,0,0,1.713-2.155,7.8,7.8,0,0,1-2.474.945A3.9,3.9,0,0,0,9.351,5.605a11.06,11.06,0,0,1-8.029-4.07,3.9,3.9,0,0,0,1.206,5.2A3.88,3.88,0,0,1,.763,6.249c0,.016,0,.033,0,.049a3.9,3.9,0,0,0,3.125,3.82,3.9,3.9,0,0,1-1.759.067A3.9,3.9,0,0,0,5.767,12.89,7.816,7.816,0,0,1,.929,14.557,7.925,7.925,0,0,1,0,14.5a11.026,11.026,0,0,0,5.972,1.75A11.008,11.008,0,0,0,17.055,5.169q0-.253-.011-.5a7.918,7.918,0,0,0,1.944-2.017" transform="translate(0 -0.822)" fill="none" stroke="#000" stroke-width="0.5"/>
  </g>
</svg>
